<?xml version="1.0" encoding="UTF-8"?>
<svg version="1.1" xmlns="http://www.w3.org/2000/svg" width="500" height="500">
<path d="M0 0 C165 0 330 0 500 0 C500 165 500 330 500 500 C335 500 170 500 0 500 C0 335 0 170 0 0 Z " fill="#FEFEFE" transform="translate(0,0)"/>
<path d="M0 0 C0.81597656 0.45761719 1.63195312 0.91523438 2.47265625 1.38671875 C10.29644776 6.15413762 15.13322777 11.71823677 18.5625 20.1875 C20.37112167 24.06728519 21.3263272 25.65320785 25.171875 27.6328125 C27.60980357 28.42278506 30.06108564 29.17261839 32.5234375 29.8828125 C41.71317835 32.83592023 47.24649562 39.92290719 52 48 C52.36222656 48.61230469 52.72445312 49.22460938 53.09765625 49.85546875 C56.92933838 57.92873389 56.13942906 69.66866538 53.4375 77.9375 C49.45184937 87.20031871 42.99153503 94.35377172 34 99 C26.64903739 101.82817695 19.88970548 102.43281698 12.06787109 102.38818359 C10.91858627 102.39344055 9.76930145 102.39869751 8.58518982 102.40411377 C4.81446443 102.41723755 1.04416662 102.40860357 -2.7265625 102.3984375 C-5.36111532 102.40046014 -7.99566759 102.40337316 -10.63021851 102.40713501 C-16.13926772 102.41257376 -21.64819579 102.40544906 -27.15722656 102.39111328 C-33.50916693 102.37477404 -39.86081854 102.38009192 -46.21275198 102.3965925 C-52.34877615 102.41188855 -58.48467314 102.41021724 -64.62070847 102.4014473 C-67.22097184 102.39944996 -69.82124262 102.40188812 -72.42149734 102.40888596 C-76.05674895 102.41652452 -79.69144948 102.40486232 -83.32666016 102.38818359 C-84.929058 102.39729263 -84.929058 102.39729263 -86.56382751 102.40658569 C-92.69521807 102.35460457 -97.50615414 101.84463836 -103 99 C-103.83330727 97.01714134 -103.83330727 97.01714134 -104 95 C-103.01 94.01 -103.01 94.01 -102 93 C-100.23741055 93.23253155 -100.23741055 93.23253155 -98.08872986 93.85783386 C-92.55022741 95.23178908 -87.2645343 95.28836658 -81.58032227 95.2746582 C-79.91995438 95.2823246 -79.91995438 95.2823246 -78.2260437 95.29014587 C-74.58944194 95.30397595 -70.95303108 95.30309017 -67.31640625 95.30078125 C-64.77489655 95.30467149 -62.23338749 95.30900684 -59.69187927 95.31376648 C-54.37358217 95.32121433 -49.05535434 95.32108704 -43.73706055 95.31567383 C-37.61183662 95.30963466 -31.48684243 95.32195206 -25.36165768 95.3432439 C-19.44084548 95.36305932 -13.52010377 95.36602486 -7.59925652 95.36250877 C-5.09274697 95.36302062 -2.58623364 95.36823249 -0.07974434 95.37832069 C3.43065761 95.39071757 6.9405336 95.38387366 10.45092773 95.37231445 C11.4761705 95.37995819 12.50141327 95.38760193 13.557724 95.39547729 C24.46048847 95.3165038 33.15233335 92.78562976 41 85 C46.86869087 77.58541007 48.59586956 70.04927942 48.4375 60.67578125 C47.49555672 52.76177568 43.83712937 46.30316892 38 40.9375 C33.13741187 37.15752583 28.89902015 35.10271887 22.8125 34.125 C18.24029433 33.26515237 18.24029433 33.26515237 16.1875 31 C15.795625 30.01 15.40375 29.02 15 28 C9.6776996 16.45530429 3.63233124 8.33876908 -8.5 3.6875 C-19.49224836 0.3169107 -30.73334578 0.71776722 -41 6 C-50.65482372 11.36063114 -56.53295505 19.01484069 -61 29 C-62.65 28.67 -64.3 28.34 -66 28 C-65.81928457 19.86780578 -61.26527934 13.63363781 -55.95703125 7.7265625 C-41.28570852 -6.22321977 -17.84021243 -10.54826913 0 0 Z " fill="#10D9FA" transform="translate(305,166)"/>
<path d="M0 0 C6.125 -0.4375 6.125 -0.4375 9 1 C9 1.66 9 2.32 9 3 C49.92 3 90.84 3 133 3 C133.33 4.65 133.66 6.3 134 8 C132.35445874 9.64554126 130.45375543 9.13516168 128.1856842 9.14476013 C126.62292503 9.15510788 126.62292503 9.15510788 125.02859497 9.16566467 C123.29946365 9.16958473 123.29946365 9.16958473 121.53540039 9.17358398 C120.3290242 9.180271 119.12264801 9.18695801 117.87971497 9.19384766 C115.25016468 9.20793669 112.62067058 9.22025658 109.99110603 9.22979546 C105.83602311 9.24521113 101.68101719 9.26915941 97.52598572 9.29469299 C85.70886085 9.36599557 73.89169185 9.42572138 62.07446289 9.47680664 C55.55212069 9.50507797 49.02985507 9.54044146 42.5075931 9.58346039 C38.37436695 9.61028928 34.24122748 9.62815957 30.10793126 9.63949764 C26.93656751 9.65073886 23.76529761 9.67486848 20.59399414 9.69702148 C18.86789917 9.6979052 18.86789917 9.6979052 17.10693359 9.69880676 C16.06227432 9.70852509 15.01761505 9.71824341 13.94129944 9.72825623 C13.0300232 9.73248816 12.11874697 9.7367201 11.1798563 9.74108028 C8.79059044 9.79689742 8.79059044 9.79689742 7 12 C3.89652746 12.33015665 1.84218824 12.50531294 -0.875 10.875 C-2.51151479 8.14747535 -2.32502803 6.12026907 -2 3 C-1.34 2.01 -0.68 1.02 0 0 Z " fill="#0EB5F9" transform="translate(165,222)"/>
<path d="M0 0 C0.33 0.33 0.66 0.66 1 1 C2.37396864 1.10313358 3.75314916 1.1379346 5.13096619 1.14476013 C6.02135086 1.15165863 6.91173553 1.15855713 7.82910156 1.16566467 C8.81354248 1.16827805 9.7979834 1.17089142 10.81225586 1.17358398 C11.84306778 1.180271 12.8738797 1.18695801 13.93592834 1.19384766 C16.1823958 1.20793461 18.42887789 1.21981693 20.67536736 1.22979546 C24.22557253 1.24614315 27.77566909 1.26937742 31.32582092 1.29469299 C41.42248162 1.36564695 51.51918666 1.42567393 61.6159668 1.47680664 C67.78334975 1.50852373 73.95060852 1.54978079 80.11789131 1.59700203 C82.47468401 1.61306652 84.83150536 1.62536738 87.18833733 1.63390923 C90.47847034 1.64600583 93.76830915 1.6701314 97.05834961 1.69702148 C98.0407663 1.69761063 99.02318298 1.69819977 100.03536987 1.69880676 C101.37517662 1.71338425 101.37517662 1.71338425 102.74205017 1.72825623 C103.90985724 1.73460413 103.90985724 1.73460413 105.10125637 1.74108028 C107 2 107 2 109 4 C108.67 5.32 108.34 6.64 108 8 C72.69 8 37.38 8 1 8 C1 8.66 1 9.32 1 10 C-1.79870027 11.39935013 -3.90498792 11.25265405 -7 11 C-8.875 9.875 -8.875 9.875 -10 8 C-10.39310741 4.85514075 -10.47555213 2.86718329 -8.9375 0.0625 C-5.84787273 -1.63181173 -3.32782582 -0.73951685 0 0 Z " fill="#11AAF9" transform="translate(159,211)"/>
<path d="M0 0 C3.0625 0.25 3.0625 0.25 6.0625 2.25 C8.08093403 2.55389479 8.08093403 2.55389479 10.32008362 2.51501465 C11.18797516 2.52328781 12.0558667 2.53156097 12.95005798 2.54008484 C13.89925613 2.53910294 14.84845428 2.53812103 15.82641602 2.53710938 C16.82825928 2.54394241 17.83010254 2.55077545 18.86230469 2.55781555 C21.03942681 2.5714147 23.21658099 2.58046081 25.3937397 2.58552551 C28.83494921 2.59379456 32.27589079 2.61427984 35.71702576 2.63806152 C44.26234316 2.69455679 52.80772546 2.72973152 61.35314941 2.76568604 C68.57378257 2.79686976 75.79428577 2.83601222 83.01481438 2.88594055 C86.41285271 2.90608076 89.81079184 2.91434254 93.20887756 2.92224121 C95.28191495 2.93520743 97.35494897 2.94872682 99.42797852 2.96289062 C100.3792009 2.96190872 101.33042328 2.96092682 102.31047058 2.95991516 C103.1755423 2.96818832 104.04061401 2.97646149 104.93190002 2.98498535 C105.6857174 2.98791847 106.43953478 2.99085159 107.21619511 2.9938736 C109.0625 3.25 109.0625 3.25 111.0625 5.25 C110.6875 7.375 110.6875 7.375 110.0625 9.25 C108.11478195 9.26213028 108.11478195 9.26213028 106.12771606 9.27450562 C93.91384925 9.35186034 81.7000953 9.43957226 69.48637581 9.53752708 C63.2065974 9.58755565 56.92683635 9.63388497 50.64697266 9.671875 C44.59095457 9.70864507 38.53507952 9.75498214 32.4791832 9.80806351 C30.16425958 9.8266516 27.84930526 9.84174307 25.53433609 9.85334396 C22.30154907 9.87013104 19.06909281 9.89914749 15.83642578 9.93115234 C14.87113953 9.93331253 13.90585327 9.93547272 12.91131592 9.93769836 C12.03349457 9.94886185 11.15567322 9.96002533 10.25125122 9.9715271 C9.48616304 9.97705786 8.72107487 9.98258862 7.9328022 9.98828697 C5.81820872 10.09276285 5.81820872 10.09276285 4.0625 12.25 C-1.91466895 12.793379 -1.91466895 12.793379 -4.9375 11.1875 C-6.55397822 8.05557344 -5.72415296 5.57814714 -4.9375 2.25 C-2.9375 0.25 -2.9375 0.25 0 0 Z " fill="#10B4F9" transform="translate(174.9375,244.75)"/>
<path d="M0 0 C0.33 0.33 0.66 0.66 1 1 C3.08026133 1.11860175 5.16452381 1.16742587 7.24804688 1.18945312 C8.22609032 1.20189308 8.22609032 1.20189308 9.22389221 1.21458435 C10.64366698 1.23201801 12.06347105 1.24717568 13.48329163 1.26036072 C15.72685405 1.28132573 17.97026898 1.3083526 20.21374512 1.33703613 C24.97577395 1.396826 29.73787054 1.44894601 34.5 1.5 C40.01602416 1.55913637 45.53197546 1.6213569 51.04786682 1.69187927 C53.26426886 1.71854569 55.48067785 1.73930469 57.69714355 1.7598877 C59.04875033 1.7764843 60.40035378 1.79335558 61.75195312 1.81054688 C62.93696411 1.82307495 64.1219751 1.83560303 65.34289551 1.84851074 C68 2 68 2 69 3 C69.125 5.5 69.125 5.5 69 8 C67.16789085 9.83210915 64.24295582 9.15374291 61.78369141 9.17358398 C61.13487503 9.180271 60.48605865 9.18695801 59.81758118 9.19384766 C58.40435309 9.20792752 56.99110186 9.21981215 55.5778389 9.22979546 C53.34212119 9.24616287 51.10657459 9.26939909 48.87094116 9.29469299 C42.51300541 9.36558323 36.15499901 9.4255899 29.796875 9.47680664 C25.91176181 9.50858529 22.02684333 9.54986042 18.14188766 9.59700203 C16.65954465 9.6130321 15.17715671 9.62534903 13.69475174 9.63390923 C11.62133253 9.64605304 9.54837146 9.67019873 7.47509766 9.69702148 C6.29452789 9.70732895 5.11395813 9.71763641 3.89761353 9.72825623 C0.80528994 9.7870498 0.80528994 9.7870498 -2 12 C-5.0625 11.8125 -5.0625 11.8125 -8 11 C-10.31282587 7.53076119 -10.42478586 6.07794425 -10 2 C-7.64880534 -2.28747261 -4.22461819 -0.93880404 0 0 Z " fill="#28A4F9" transform="translate(150,234)"/>
<path d="M0 0 C2.64 0 5.28 0 8 0 C10.97 5.28 13.94 10.56 17 16 C17.33 10.72 17.66 5.44 18 0 C19.98 0 21.96 0 24 0 C24 9.24 24 18.48 24 28 C21.36 28 18.72 28 16 28 C12.04 21.07 12.04 21.07 8 14 C7.67 18.62 7.34 23.24 7 28 C4.69 28 2.38 28 0 28 C0 18.76 0 9.52 0 0 Z " fill="#218BF9" transform="translate(185,282)"/>
<path d="M0 0 C3.5578125 -0.12375 3.5578125 -0.12375 7.1875 -0.25 C7.92508545 -0.28641602 8.6626709 -0.32283203 9.42260742 -0.36035156 C13.02641563 -0.42069892 14.87966133 -0.07776224 17.92578125 1.890625 C20.60037274 4.61054855 20.94995458 5.46951858 21.3125 9.3125 C20.95124058 13.57536111 19.98007946 15.01992054 17 18 C13.57067929 19.71466036 9.78283935 19.05404056 6 19 C6 21.97 6 24.94 6 28 C4.02 28 2.04 28 0 28 C0 18.76 0 9.52 0 0 Z " fill="#1D89F9" transform="translate(295,282)"/>
<path d="M0 0 C3.5578125 -0.12375 3.5578125 -0.12375 7.1875 -0.25 C7.92508545 -0.28641602 8.6626709 -0.32283203 9.42260742 -0.36035156 C13.02641563 -0.42069892 14.87966133 -0.07776224 17.92578125 1.890625 C20.60037274 4.61054855 20.94995458 5.46951858 21.3125 9.3125 C20.95124058 13.57536111 19.98007946 15.01992054 17 18 C13.57067929 19.71466036 9.78283935 19.05404056 6 19 C6 21.97 6 24.94 6 28 C4.02 28 2.04 28 0 28 C0 18.76 0 9.52 0 0 Z " fill="#1D89F9" transform="translate(236,282)"/>
<path d="M0 0 C6.27 0 12.54 0 19 0 C19 1.98 19 3.96 19 6 C15.04 6 11.08 6 7 6 C7 7.65 7 9.3 7 11 C10.3 11 13.6 11 17 11 C17 12.65 17 14.3 17 16 C13.7 16 10.4 16 7 16 C7 17.98 7 19.96 7 22 C10.96 22 14.92 22 19 22 C19 23.98 19 25.96 19 28 C12.73 28 6.46 28 0 28 C0 18.76 0 9.52 0 0 Z " fill="#288FF9" transform="translate(213,282)"/>
<path d="M0 0 C3.1875 2.3125 3.1875 2.3125 5 5 C5 5.99 5 6.98 5 8 C2.69 8 0.38 8 -2 8 C-2.33 7.34 -2.66 6.68 -3 6 C-4.65 6 -6.3 6 -8 6 C-7.83983208 7.97276364 -7.83983208 7.97276364 -7 10 C-5.01563955 11.0308756 -5.01563955 11.0308756 -2.625 11.5625 C0.75439678 12.44862847 2.83652265 13.17659403 5 16 C5.63109197 20.25987082 5.45683283 22.28429524 3.125 25.9375 C-1.25416341 28.82774785 -4.89190348 28.90586933 -10 28 C-13.49642065 26.07340087 -14.68231206 25.07525149 -15.8125 21.25 C-15.874375 20.5075 -15.93625 19.765 -16 19 C-12.625 18.8125 -12.625 18.8125 -9 19 C-8.34 19.99 -7.68 20.98 -7 22 C-5.35 21.67 -3.7 21.34 -2 21 C-2 20.01 -2 19.02 -2 18 C-3.15628906 17.61908203 -3.15628906 17.61908203 -4.3359375 17.23046875 C-5.33882813 16.88628906 -6.34171875 16.54210937 -7.375 16.1875 C-8.37273437 15.85105469 -9.37046875 15.51460938 -10.3984375 15.16796875 C-13 14 -13 14 -15 11 C-15.40713754 7.26790586 -15.48317209 4.89731959 -13.6875 1.5625 C-9.32100346 -0.97616078 -4.9101853 -0.85710335 0 0 Z " fill="#1F8AF9" transform="translate(334,282)"/>
<path d="M0 0 C1.98 0 3.96 0 6 0 C6.60773974 1.4777022 7.21094504 2.95726927 7.8125 4.4375 C8.14894531 5.26121094 8.48539062 6.08492188 8.83203125 6.93359375 C10.34669644 10.91022308 11.65434806 14.96304418 13 19 C14.98 12.73 16.96 6.46 19 0 C20.98 0 22.96 0 25 0 C23.43618819 9.6956332 20.20450331 18.74926403 17 28 C15.72125 28.061875 14.4425 28.12375 13.125 28.1875 C12.04605469 28.23970703 12.04605469 28.23970703 10.9453125 28.29296875 C10.30335938 28.19628906 9.66140625 28.09960938 9 28 C6.63541792 24.45312688 5.64955231 20.86380101 4.5 16.8125 C4.28730469 16.08224609 4.07460938 15.35199219 3.85546875 14.59960938 C2.4576125 9.75856734 1.19726142 4.89436035 0 0 Z " fill="#218BF9" transform="translate(267,282)"/>
<path d="M0 0 C1.31157326 -0.00956978 1.31157326 -0.00956978 2.64964294 -0.01933289 C4.07615929 -0.02100212 4.07615929 -0.02100212 5.53149414 -0.02270508 C6.98719566 -0.02769768 6.98719566 -0.02769768 8.4723053 -0.03279114 C10.52938359 -0.03786463 12.58647015 -0.04019933 14.64355469 -0.04003906 C17.79969783 -0.04222459 20.9554911 -0.06037324 24.11157227 -0.0793457 C26.10571169 -0.08227966 28.09985278 -0.08426444 30.09399414 -0.08520508 C31.0429808 -0.09239059 31.99196747 -0.09957611 32.9697113 -0.10697937 C33.84724564 -0.10390274 34.72477997 -0.10082611 35.62890625 -0.09765625 C36.4031041 -0.09908127 37.17730194 -0.10050629 37.97496033 -0.10197449 C39.87915039 0.14526367 39.87915039 0.14526367 41.87915039 2.14526367 C41.3434361 5.68097796 41.3434361 5.68097796 39.87915039 7.14526367 C38.50855446 7.24838404 37.13275381 7.2837532 35.75830078 7.29052734 C34.44672752 7.30009712 34.44672752 7.30009712 33.10865784 7.30986023 C31.68214149 7.31152946 31.68214149 7.31152946 30.22680664 7.31323242 C28.77110512 7.31822502 28.77110512 7.31822502 27.28599548 7.32331848 C25.22891719 7.32839197 23.17183064 7.33072668 21.11474609 7.33056641 C17.95860295 7.33275193 14.80280969 7.35090059 11.64672852 7.36987305 C9.65258909 7.372807 7.658448 7.37479178 5.66430664 7.37573242 C4.24082664 7.3865107 4.24082664 7.3865107 2.78858948 7.39750671 C1.91105515 7.39443008 1.03352081 7.39135345 0.12939453 7.38818359 C-0.64480331 7.38960861 -1.41900116 7.39103363 -2.21665955 7.39250183 C-4.12084961 7.14526367 -4.12084961 7.14526367 -6.12084961 5.14526367 C-5.4240149 0.54615459 -4.47897478 0.02207512 0 0 Z " fill="#26C6FA" transform="translate(229.120849609375,235.854736328125)"/>
<path d="M0 0 C2.5625 1.5625 2.5625 1.5625 4 4 C4.5787127 8.55736251 4.57141092 10.8323342 2.5625 14.9375 C-0.57899493 17.46602031 -2.82538499 18.03470031 -6.80859375 18.2578125 C-9 18 -9 18 -12 16 C-14.39388221 12.40917668 -15.0757667 10.31870169 -15 6 C-11.0444698 -1.36547002 -7.71522345 -1.72667523 0 0 Z " fill="#0BECFB" transform="translate(342,173)"/>
<path d="M0 0 C2.4375 0.4375 2.4375 0.4375 3.75708008 1.93286133 C6.07910538 4.0119899 7.67801671 3.86403361 10.76171875 3.94921875 C12.30375977 4.00239258 12.30375977 4.00239258 13.87695312 4.05664062 C15.48473633 4.09047852 15.48473633 4.09047852 17.125 4.125 C18.20845703 4.15916016 19.29191406 4.19332031 20.40820312 4.22851562 C23.0845322 4.3110456 25.76053159 4.38017937 28.4375 4.4375 C28.480221 6.10361905 28.47813832 7.77132885 28.4375 9.4375 C26.80038877 11.07461123 24.88934609 10.62342222 22.6328125 10.68359375 C21.65699219 10.71646484 20.68117187 10.74933594 19.67578125 10.78320312 C17.60817795 10.84416759 15.54046382 10.90148766 13.47265625 10.95507812 C12.49425781 10.98923828 11.51585937 11.02339844 10.5078125 11.05859375 C9.60820801 11.0836499 8.70860352 11.10870605 7.78173828 11.13452148 C5.16932294 11.29599778 5.16932294 11.29599778 2.4375 13.4375 C-1.125 13.25 -1.125 13.25 -4.5625 12.4375 C-6.72801116 9.18923326 -7.11406953 8.20655843 -6.5625 4.4375 C-4.53830677 1.66360557 -3.41064923 0.58230597 0 0 Z " fill="#1CACF9" transform="translate(192.5625,197.5625)"/>
<path d="M0 0 C1.56047445 0.00015913 3.12095416 0.00585397 4.68139648 0.01586914 C5.91115456 0.01799156 5.91115456 0.01799156 7.16575623 0.02015686 C9.79470406 0.0257725 12.42356797 0.0383276 15.05249023 0.05102539 C16.8304838 0.05603838 18.60847869 0.06060163 20.38647461 0.06469727 C24.75434569 0.07574701 29.12215371 0.09302208 33.48999023 0.11352539 C33.87217791 1.76967196 34.20394125 3.43809563 34.48999023 5.11352539 C33.48999023 6.11352539 33.48999023 6.11352539 29.97998047 6.22705078 C28.41950602 6.22689165 26.85902631 6.22119681 25.29858398 6.21118164 C24.47874527 6.20976669 23.65890656 6.20835175 22.81422424 6.20689392 C20.18527641 6.20127828 17.5564125 6.18872318 14.92749023 6.17602539 C13.14949667 6.1710124 11.37150177 6.16644915 9.59350586 6.16235352 C5.22563478 6.15130378 0.85782676 6.1340287 -3.51000977 6.11352539 C-3.89219744 4.45737882 -4.22396078 2.78895515 -4.51000977 1.11352539 C-3.51000977 0.11352539 -3.51000977 0.11352539 0 0 Z " fill="#17C3FA" transform="translate(233.510009765625,201.886474609375)"/>
<path d="M0 0 C1.58206057 0.00667536 3.16410534 0.0186375 4.74609375 0.03515625 C5.55240234 0.03966797 6.35871094 0.04417969 7.18945312 0.04882812 C9.18753131 0.06065107 11.18557158 0.07858711 13.18359375 0.09765625 C14.30859375 3.84765625 14.30859375 3.84765625 13.18359375 6.09765625 C7.57359375 6.09765625 1.96359375 6.09765625 -3.81640625 6.09765625 C-4.14640625 4.44765625 -4.47640625 2.79765625 -4.81640625 1.09765625 C-3.81640625 0.09765625 -3.81640625 0.09765625 0 0 Z " fill="#15D3FA" transform="translate(276.81640625,201.90234375)"/>
<path d="M0 0 C3 0.25 3 0.25 5 2.25 C5.25 4.75 5.25 4.75 5 7.25 C3 9.25 3 9.25 0 9.5 C-3 9.25 -3 9.25 -5 7.25 C-5.25 4.75 -5.25 4.75 -5 2.25 C-3 0.25 -3 0.25 0 0 Z " fill="#0CEAFB" transform="translate(333,147.75)"/>
<path d="M0 0 C5.41139241 -0.36075949 5.41139241 -0.36075949 7.9375 1.1875 C9 3 9 3 8.75 5.625 C8 8 8 8 7 9 C4.66702567 9.04092937 2.33294775 9.04241723 0 9 C0 6.03 0 3.06 0 0 Z " fill="#E8F3FE" transform="translate(301,287)"/>
<path d="M0 0 C5.41139241 -0.36075949 5.41139241 -0.36075949 7.9375 1.1875 C9 3 9 3 8.75 5.625 C8 8 8 8 7 9 C4.66702567 9.04092937 2.33294775 9.04241723 0 9 C0 6.03 0 3.06 0 0 Z " fill="#E8F3FE" transform="translate(242,287)"/>
<path d="M0 0 C1.91015625 0.1328125 1.91015625 0.1328125 3.91015625 1.1328125 C3.58015625 2.7828125 3.25015625 4.4328125 2.91015625 6.1328125 C-0.05984375 6.1328125 -3.02984375 6.1328125 -6.08984375 6.1328125 C-6.47203142 4.47666593 -6.80379477 2.80824226 -7.08984375 1.1328125 C-5.19099279 -0.76603846 -2.51736472 0.00913744 0 0 Z " fill="#10DAFA" transform="translate(298.08984375,247.8671875)"/>
<path d="M0 0 C1.23556641 0.01740234 1.23556641 0.01740234 2.49609375 0.03515625 C3.32238281 0.04417969 4.14867187 0.05320313 5 0.0625 C5.63808594 0.07410156 6.27617187 0.08570313 6.93359375 0.09765625 C7.55859375 1.97265625 7.55859375 1.97265625 7.93359375 4.09765625 C5.93359375 6.09765625 5.93359375 6.09765625 3.98828125 6.29296875 C1.97005208 6.22786458 -0.04817708 6.16276042 -2.06640625 6.09765625 C-2.44859392 4.44150968 -2.78035727 2.77308601 -3.06640625 1.09765625 C-2.06640625 0.09765625 -2.06640625 0.09765625 0 0 Z " fill="#0EE0FA" transform="translate(307.06640625,224.90234375)"/>
<path d="M0 0 C3.5625 0.1875 3.5625 0.1875 5.5625 2.1875 C5.1875 4.3125 5.1875 4.3125 4.5625 6.1875 C1.9225 6.1875 -0.7175 6.1875 -3.4375 6.1875 C-3.81968767 4.53135343 -4.15145102 2.86292976 -4.4375 1.1875 C-3.4375 0.1875 -3.4375 0.1875 0 0 Z " fill="#12D0FA" transform="translate(275.4375,212.8125)"/>
<path d="M0 0 C2.0625 0.4375 2.0625 0.4375 4 1 C4 2.65 4 4.3 4 6 C2.125 6.625 2.125 6.625 0 7 C-0.66 6.34 -1.32 5.68 -2 5 C-1.46428571 1.46428571 -1.46428571 1.46428571 0 0 Z " fill="#1DE4FB" transform="translate(321,163)"/>
</svg>
